<?xml version="1.0" encoding="UTF-8"?> <!-- Generator: Adobe Illustrator 16.0.0, SVG Export Plug-In . SVG Version: 6.00 Build 0) --> <svg xmlns="http://www.w3.org/2000/svg" xmlns:xlink="http://www.w3.org/1999/xlink" x="0px" y="0px" width="600px" height="600px" viewBox="0 0 600 600" xml:space="preserve"> <defs> <style type="text/css">@import url(https://fonts.googleapis.com/css?family=Ubuntu:700);</style> </defs> <g id="Wheel"> <g id="Wheel_1_"> <g> <defs> <path id="SVGID_1_" d="M300,15.337C142.787,15.337,15.337,142.776,15.337,300c0,157.213,127.45,284.663,284.663,284.663 S584.663,457.213,584.663,300C584.663,142.776,457.213,15.337,300,15.337z M300,457.805 c-87.152,0-157.805-70.652-157.805-157.805c0-87.152,70.653-157.805,157.805-157.805c87.152,0,157.805,70.653,157.805,157.805 C457.805,387.152,387.152,457.805,300,457.805z"></path> </defs> <use xlink:href="#SVGID_1_" overflow="visible" fill="#FFFFFF"></use> <clipPath id="SVGID_2_"> <use xlink:href="#SVGID_1_" overflow="visible"></use> </clipPath> <g clip-path="url(#SVGID_2_)"> <path fill-rule="evenodd" clip-rule="evenodd" fill="#70C4DC" d="M249.281,160.991c-5.236,1.681-7.251-0.828-4.477-5.577 l40.059-68.566c2.774-4.749,1.151-10.891-3.607-13.65l-75.729-43.905c-4.758-2.759-4.269-6.037,1.087-7.286 c0,0,48.132-11.219,100.637-9.769c52.505,1.451,95.051,18.855,110.715,24.657l22.806,85.533 c1.417,5.314-1.759,10.869-7.058,12.343l-69.161,19.244c-5.299,1.475-14.12,3.038-19.603,3.474l-38.464,3.059 c-5.482,0.436-14.439,0.284-19.904-0.338l-15.808-1.799c-5.465-0.622-14.221,0.245-19.457,1.926L249.281,160.991z"></path> </g> <g clip-path="url(#SVGID_2_)"> <path fill-rule="evenodd" clip-rule="evenodd" fill="#A4CCE6" d="M362.433,165.843c-4.893-2.514-4.542-5.713,0.778-7.109 l76.807-20.157c5.32-1.396,8.516-6.887,7.103-12.203l-22.504-84.595c-1.413-5.315,1.251-7.287,5.921-4.382 c0,0,41.967,26.103,78.071,64.255c36.099,38.151,53.876,80.542,60.851,95.723l-44.354,76.606 c-2.756,4.76-8.93,6.442-13.719,3.738l-62.515-35.296c-4.789-2.704-12.132-7.836-16.316-11.405l-29.357-25.036 c-4.186-3.569-10.411-10.01-13.836-14.314l-9.907-12.45c-3.425-4.304-10.229-9.882-15.121-12.396L362.433,165.843z"></path> </g> <g clip-path="url(#SVGID_2_)"> <path fill-rule="evenodd" clip-rule="evenodd" fill="#8EB4DA" d="M439.01,249.283c-1.681-5.237,0.829-7.251,5.578-4.477 l68.564,40.058c4.749,2.774,10.892,1.151,13.65-3.607l43.905-75.729c2.759-4.758,6.037-4.269,7.285,1.088 c0,0,11.217,48.131,9.769,100.639c-1.451,52.503-18.855,95.049-24.657,110.714l-85.532,22.807 c-5.314,1.417-10.868-1.759-12.343-7.058l-19.247-69.163c-1.475-5.299-3.037-14.12-3.473-19.603l-3.057-38.463 c-0.436-5.482-0.283-14.439,0.339-19.904l1.798-15.809c0.622-5.465-0.245-14.221-1.926-19.458L439.01,249.283z"></path> </g> <g clip-path="url(#SVGID_2_)"> <path fill-rule="evenodd" clip-rule="evenodd" fill="#7F9FCE" d="M434.157,362.433c2.515-4.893,5.714-4.542,7.109,0.778 l20.158,76.808c1.396,5.32,6.887,8.516,12.202,7.103l84.595-22.504c5.315-1.414,7.287,1.25,4.383,5.92 c0,0-26.103,41.967-64.256,78.07c-38.151,36.1-80.543,53.877-95.722,60.852l-76.606-44.354c-4.76-2.756-6.441-8.93-3.737-13.719 l35.296-62.514c2.704-4.789,7.837-12.132,11.405-16.317l25.036-29.357c3.568-4.186,10.01-10.411,14.313-13.836l12.45-9.907 c4.304-3.425,9.882-10.229,12.396-15.121L434.157,362.433z"></path> </g> <g clip-path="url(#SVGID_2_)"> <path fill-rule="evenodd" clip-rule="evenodd" fill="#6B86BB" d="M350.717,439.01c5.237-1.681,7.252,0.829,4.477,5.578 l-40.057,68.564c-2.775,4.749-1.152,10.892,3.606,13.65l75.729,43.905c4.758,2.759,4.269,6.037-1.088,7.285 c0,0-48.131,11.218-100.638,9.768c-52.504-1.45-95.05-18.854-110.714-24.656l-22.807-85.532 c-1.417-5.314,1.759-10.868,7.057-12.343l69.163-19.246c5.298-1.475,14.12-3.037,19.603-3.473l38.461-3.058 c5.483-0.436,14.439-0.283,19.904,0.339l15.811,1.798c5.465,0.622,14.22-0.245,19.457-1.926L350.717,439.01z"></path> </g> <g clip-path="url(#SVGID_2_)"> <path fill-rule="evenodd" clip-rule="evenodd" fill="#5975AC" d="M237.569,434.157c4.892,2.515,4.542,5.714-0.778,7.109 l-76.81,20.158c-5.32,1.396-8.516,6.887-7.102,12.202l22.503,84.595c1.414,5.315-1.25,7.287-5.921,4.383 c0,0-41.966-26.102-78.068-64.254c-36.101-38.153-53.878-80.545-60.852-95.723l44.353-76.607 c2.756-4.76,8.929-6.441,13.719-3.737l62.513,35.297c4.79,2.704,12.132,7.837,16.317,11.405l29.36,25.035 c4.185,3.568,10.411,10.01,13.835,14.313l9.907,12.45c3.424,4.304,10.229,9.882,15.12,12.396L237.569,434.157z"></path> </g> <g clip-path="url(#SVGID_2_)"> <path fill-rule="evenodd" clip-rule="evenodd" fill="#4A68A1" d="M160.991,350.718c1.681,5.237-0.828,7.251-5.577,4.477 l-68.566-40.058c-4.749-2.774-10.891-1.152-13.65,3.606l-43.905,75.729c-2.759,4.759-6.037,4.269-7.286-1.088 c0,0-11.219-48.132-9.77-100.637c1.452-52.505,18.856-95.051,24.658-110.715l85.533-22.807 c5.314-1.417,10.869,1.759,12.343,7.058l19.244,69.162c1.475,5.299,3.037,14.12,3.473,19.603l3.059,38.463 c0.436,5.483,0.284,14.439-0.338,19.904l-1.799,15.809c-0.622,5.465,0.246,14.22,1.927,19.457L160.991,350.718z"></path> </g> <g clip-path="url(#SVGID_2_)"> <path fill-rule="evenodd" clip-rule="evenodd" fill="#2DBFD3" d="M165.842,237.569c-2.514,4.892-5.712,4.542-7.109-0.778 l-20.158-76.81c-1.396-5.32-6.887-8.516-12.203-7.102l-84.594,22.503c-5.315,1.414-7.288-1.25-4.383-5.921 c0,0,26.102-41.968,64.253-78.068c38.152-36.101,80.544-53.878,95.722-60.852l76.607,44.354 c4.76,2.756,6.442,8.929,3.737,13.719l-35.296,62.512c-2.705,4.79-7.837,12.132-11.405,16.317l-25.036,29.361 c-3.568,4.185-10.01,10.411-14.313,13.835l-12.45,9.906c-4.304,3.424-9.882,10.229-12.396,15.121L165.842,237.569z"></path> </g> </g> </g> </g> <g id="Logo"> </g> <g id="Text"> <text transform="matrix(1 0 0 1 311.6035 89.9819)" fill="#FFFFFF" font-family="'Ubuntu'" font-size="19.7256">Planning</text> <text transform="matrix(1 0 0 1 175.6704 294.335)"><tspan x="0" y="0" fill="#4A68A1" font-family="'Ubuntu'" font-size="24.3669">System Development</tspan><tspan x="24.732" y="29.24" fill="#4A68A1" font-family="'Ubuntu'" font-size="24.3669">Life Cycle (SDLC)</tspan></text> <text transform="matrix(1 0 0 1 413.7422 181.0928)"><tspan x="0" y="0" fill="#FFFFFF" font-family="'Ubuntu'" font-size="19.7256">Requirements</tspan><tspan x="26.807" y="23.671" fill="#FFFFFF" font-family="'Ubuntu'" font-size="19.7256">Analysis</tspan></text> <text transform="matrix(1 0 0 1 472.4453 335.9961)"><tspan x="0" y="0" fill="#FFFFFF" font-family="'Ubuntu'" font-size="19.7256">Software</tspan><tspan x="11.046" y="23.671" fill="#FFFFFF" font-family="'Ubuntu'" font-size="19.7256">Design</tspan></text> <text transform="matrix(1 0 0 1 379.6191 478.7168)"><tspan x="0" y="0" fill="#FFFFFF" font-family="'Ubuntu'" font-size="19.7256">Software</tspan><tspan x="-20.347" y="23.671" fill="#FFFFFF" font-family="'Ubuntu'" font-size="19.7256">Development</tspan></text> <text transform="matrix(1 0 0 1 202.6694 495.5156)"><tspan x="0" y="0" fill="#FFFFFF" font-family="'Ubuntu'" font-size="19.7256">Software</tspan><tspan x="-10.188" y="23.671" fill="#FFFFFF" font-family="'Ubuntu'" font-size="19.7256">Integration</tspan><tspan x="2.811" y="47.342" fill="#FFFFFF" font-family="'Ubuntu'" font-size="19.7256">and Test</tspan></text> <text transform="matrix(1 0 0 1 89.5376 417.1943)"><tspan x="0" y="0" fill="#FFFFFF" font-family="'Ubuntu'" font-size="19.7256">Software</tspan><tspan x="-32.004" y="23.671" fill="#FFFFFF" font-family="'Ubuntu'" font-size="19.7256">Implementation</tspan></text> <text transform="matrix(1 0 0 1 35.5825 225.4712)"><tspan x="0" y="0" fill="#FFFFFF" font-family="'Ubuntu'" font-size="19.7256">Software</tspan><tspan x="-9.557" y="23.671" fill="#FFFFFF" font-family="'Ubuntu'" font-size="19.7256">Operations</tspan><tspan x="26.156" y="47.341" fill="#FFFFFF" font-family="'Ubuntu'" font-size="19.7256">and</tspan><tspan x="-17.486" y="71.012" fill="#FFFFFF" font-family="'Ubuntu'" font-size="19.7256">Maintenance</tspan></text> <text transform="matrix(1 0 0 1 138.3862 89.9819)"><tspan x="0" y="0" fill="#FFFFFF" font-family="'Ubuntu'" font-size="19.7256">System</tspan><tspan x="-4.655" y="23.671" fill="#FFFFFF" font-family="'Ubuntu'" font-size="19.7256">Concept</tspan><tspan x="-29.164" y="47.341" fill="#FFFFFF" font-family="'Ubuntu'" font-size="19.7256">Development</tspan></text> </g> </svg> 